PathFileType	4	(X/Y/Z)	c:\Git\powerlifing_model_clean\simulations\HC835B\Session1\HC835B_OGW_0005\marker_experimental.trc
DataRate	CameraRate	NumFrames	NumMarkers	Units	OrigDataRate	OrigDataStartFrame	OrigNumFrames
240.000000	240.000000	4	38	mm	240.000000	209	418
Frame#	Time	RPSI			LPSI			RASI			LASI			RTH1			RTH2			RTH3			RTH4			RSK1			RSK2			RSK3			RSK4			RCAL1			RCAL2			RCAL3			RST			RPT			RTN			RFMB			RSMB			RVMB			RFMH			RSMH			RVMH			RPM			LTH1			LTH2			LTH3			LTH4			LSK1			LSK2			LSK3			LSK4			LCAL1			LCAL2			LCAL3			LFMH			LVMH			
		X1	Y1	Z1	X2	Y2	Z2	X3	Y3	Z3	X4	Y4	Z4	X5	Y5	Z5	X6	Y6	Z6	X7	Y7	Z7	X8	Y8	Z8	X9	Y9	Z9	X10	Y10	Z10	X11	Y11	Z11	X12	Y12	Z12	X13	Y13	Z13	X14	Y14	Z14	X15	Y15	Z15	X16	Y16	Z16	X17	Y17	Z17	X18	Y18	Z18	X19	Y19	Z19	X20	Y20	Z20	X21	Y21	Z21	X22	Y22	Z22	X23	Y23	Z23	X24	Y24	Z24	X25	Y25	Z25	X26	Y26	Z26	X27	Y27	Z27	X28	Y28	Z28	X29	Y29	Z29	X30	Y30	Z30	X31	Y31	Z31	X32	Y32	Z32	X33	Y33	Z33	X34	Y34	Z34	X35	Y35	Z35	X36	Y36	Z36	X37	Y37	Z37	X38	Y38	Z38	

210	0.8708333333333333	480.537078857422	1146.506469726563	-1075.2080078125	591.2474365234376	1146.238403320313	-1071.250854492188	413.623016357422	1113.54296875	-870.1240844726565	652.2156372070314	1107.045043945313	-860.1837158203127	316.3902893066407	846.8801879882815	-855.289733886719	321.3790588378907	860.9873657226565	-795.9483642578127	315.9668579101563	782.6599731445315	-800.1848754882815	333.0710449218751	793.1370849609377	-745.1646118164064	376.7168579101563	403.9746704101564	-929.992126464844	367.3212585449219	363.0931396484376	-884.0623168945315	382.7963867187501	346.2756652832032	-940.5177001953127	386.0677795410157	308.2762451171876	-894.1933593750002	460.238983154297	249.2212677001954	-1046.247924804688	498.098846435547	218.1708526611329	-1049.999267578125	436.1999511718751	212.9962005615235	-1068.401245117188	496.8987731933595	194.7678985595704	-983.3731079101565	401.0890197753907	187.9644927978516	-1019.571594238281	470.9471740722657	179.794174194336	-931.471374511719	467.0359802246095	147.7253112792969	-914.4020996093752	414.321502685547	157.191146850586	-905.7761840820315	392.0337829589845	140.4316864013672	-998.5761718750002	470.2701721191407	93.57765960693361	-885.7507324218752	413.0594177246095	94.85384368896486	-877.8840942382815	365.5098876953126	86.93260192871095	-944.784118652344	416.4059448242189	59.28398895263673	-833.586120605469	710.3790283203126	818.612487792969	-950.8111572265627	703.3983764648439	805.0358886718752	-891.6092529296877	699.4464111328126	735.6470947265626	-932.7008056640627	675.7887573242189	724.8179931640626	-877.4521484375002	648.0294189453126	289.9459533691407	-1043.130615234375	651.5573120117189	267.5384521484376	-994.7696533203127	643.5570068359376	234.7690124511719	-1031.427734375	631.5859375000001	215.3522186279297	-979.2688598632815	581.4191894531251	90.35009002685548	-1100.255737304688	612.5073852539064	53.7820510864258	-1100.234741210938	554.3701782226564	51.95237731933595	-1096.37744140625	556.5826416015626	61.87343215942384	-870.9338378906252	660.1286010742189	37.21570205688477	-911.9012451171877	
211	0.875	480.3094787597657	1146.684204101563	-1068.308837890625	591.1072998046876	1146.460815429688	-1064.404663085938	414.0911560058595	1113.775512695313	-863.111511230469	652.2626342773439	1106.934936523438	-853.7541503906252	314.5215454101563	848.483337402344	-845.682800292969	321.1253356933594	862.1065673828127	-787.1116333007815	316.0587768554688	783.6802368164065	-791.091735839844	333.3283691406251	794.5347900390627	-736.1359252929689	376.5924377441407	400.9259643554689	-915.5991210937502	367.3403320312501	361.4222717285157	-868.8008422851565	382.6656188964844	343.0950622558594	-925.0327148437502	386.0193786621095	306.1538391113282	-877.845642089844	459.9580993652345	243.4421386718751	-1028.577758789063	497.806854248047	212.2914428710938	-1031.628051757813	436.4973144531251	206.4361114501954	-1050.310546875	496.5812377929689	190.852523803711	-964.2623291015627	400.7685546875001	182.8456573486328	-1000.5244140625	470.6631774902345	177.1154022216797	-912.2056884765627	466.7193908691407	145.405990600586	-894.1961059570315	414.0035095214845	155.2029876708985	-885.828063964844	391.5908203125001	136.0801696777344	-978.0850219726565	469.8021850585939	91.95188903808595	-864.2749023437502	412.7005310058595	93.58035278320314	-856.3432617187502	365.0910644531251	84.14778137207033	-923.1060791015627	415.9448547363282	59.14745712280275	-811.0830078125002	710.1914672851564	818.8657836914065	-946.500671386719	703.4206542968751	804.5928955078127	-887.738220214844	699.1963500976564	735.7521972656251	-929.2210083007815	675.3305664062501	724.4893188476564	-874.1187133789065	647.8954467773439	290.2718200683594	-1042.45947265625	651.4418945312501	267.6747741699219	-994.143005371094	643.4351196289064	235.0545043945313	-1030.886596679688	631.4931640625001	215.4536895751954	-978.7691040039065	581.2153320312501	90.56805419921876	-1100.04541015625	612.3203125000001	54.04620361328126	-1100.113525390625	554.1442871093751	51.89987182617189	-1095.893676757813	556.5833740234376	61.78791427612306	-870.7398681640627	660.1347656250001	37.18624496459962	-911.8899536132815	
212	0.8791666666666667	480.0369262695314	1146.707275390625	-1061.56982421875	590.8708496093751	1146.451293945313	-1057.733276367188	414.5835266113282	1113.940551757813	-855.851257324219	652.2727050781251	1106.694458007813	-847.2232666015627	314.3467712402344	849.3540649414065	-836.919860839844	321.5260009765626	863.1317138671877	-778.6807250976565	316.1495971679688	784.7898559570315	-782.0183105468752	333.6464538574219	795.7454223632815	-727.2126464843751	376.5918884277344	398.1979980468751	-901.500427246094	367.3283996582032	359.7111511230469	-853.825378417969	382.5852050781251	339.9718017578126	-909.5172119140627	385.9211425781251	303.9870910644532	-861.357116699219	459.1797790527345	237.4226531982422	-1010.40087890625	497.4867553710939	206.2930908203126	-1013.033996582031	436.1407470703126	200.0852508544922	-1030.985229492188	496.4625549316407	186.7313232421875	-944.8479614257815	400.3601684570314	177.9214630126953	-981.0891723632815	470.6358642578126	174.58984375	-892.5506591796877	466.324188232422	143.0935974121094	-873.9099731445315	413.610076904297	153.1639862060547	-865.7938232421877	391.1848754882814	131.6385803222657	-957.6343383789065	469.387420654297	90.40437316894533	-842.6256103515627	412.2227478027345	92.45450592041017	-834.6174926757815	364.4802551269532	81.09323120117189	-901.095397949219	415.3876037597657	59.10670089721681	-788.6790771484377	710.0554199218751	819.0535278320315	-942.2089843750002	702.4888305664064	804.5869140625002	-883.3168945312502	698.8870239257814	735.8020019531251	-925.6900024414065	674.8774414062501	724.1197509765626	-870.7714843750002	647.8076782226564	290.6042480468751	-1041.723266601563	651.3243408203126	267.8418579101563	-993.434997558594	643.3381347656251	235.3553466796876	-1030.279296875	631.3702392578126	215.5641632080079	-978.303161621094	581.0017700195314	90.87266540527345	-1099.848388671875	612.1153564453126	54.32307815551759	-1100.013916015625	553.4871826171876	52.01967239379884	-1096.2060546875	556.6284179687501	61.71708297729494	-870.5689697265627	660.1499633789064	37.16268157958985	-911.8377685546877	
213	0.8833333333333333	479.7011718750001	1146.67041015625	-1054.61328125	590.5894775390626	1146.349243164063	-1050.949584960938	415.0473632812501	1113.850830078125	-848.9025878906252	652.2736816406251	1106.256469726563	-840.7019653320315	314.2143859863282	849.7103271484377	-828.3800048828127	321.6719360351563	863.792419433594	-770.1707763671877	316.3703308105469	785.681091308594	-773.1177368164065	333.9981079101563	797.0344238281252	-718.3331298828126	376.4075012207032	395.0803833007814	-886.9748535156252	367.2462463378907	357.4204406738282	-838.4720458984377	382.4949035644532	336.6827697753907	-893.8635253906252	385.832489013672	302.0051574707032	-844.9008789062502	459.0071716308595	231.6242980957032	-992.3111572265627	497.1419372558595	200.1717834472657	-994.5120849609377	435.714324951172	193.6089935302735	-1012.092651367188	495.918914794922	182.4618530273438	-925.907409667969	399.8818664550782	173.0765991210938	-961.4583740234377	470.2604064941407	171.7541198730469	-873.0234375000002	465.831756591797	140.5566101074219	-853.791198730469	413.2525634765626	151.180908203125	-845.699157714844	390.7300720214845	127.1615524291992	-937.0654907226565	468.8831787109376	88.94209289550783	-820.917175292969	411.6778869628907	91.22458648681642	-813.0981445312502	363.9995117187501	78.43248748779298	-879.2446899414065	414.9387207031251	59.26815032958986	-765.9867553710939	709.8929443359376	819.1790771484377	-937.8731689453127	702.0613403320314	804.2882080078127	-879.160827636719	698.6619262695314	735.7800292968751	-922.1125488281252	674.3913574218751	723.5929565429689	-867.3510742187502	647.7650146484376	290.9343872070313	-1040.895629882813	651.2507934570314	268.0336303710938	-992.686462402344	643.2519531250001	235.6234741210938	-1029.61572265625	631.2876586914064	215.6766967773438	-977.7333984375002	580.8254394531251	91.11923980712892	-1099.6220703125	611.9606323242189	54.55584716796876	-1099.893676757813	553.6196289062501	52.10973358154298	-1095.368286132813	556.7805175781251	61.76172637939455	-870.2006835937502	660.1738281250001	37.12586975097657	-911.816345214844	
